<svg width="503" height="234" viewBox="0 0 503 234" fill="none" xmlns="http://www.w3.org/2000/svg">
<path d="M164.185 228.221C164.185 222.962 153.825 224.208 153.825 217.427C153.825 214.216 156.505 211.781 160.235 211.781C162.335 211.781 164.158 212.334 165.512 213.386L164.379 214.88C163.163 213.967 161.81 213.524 160.152 213.524C157.362 213.524 155.704 215.102 155.704 217.316C155.704 222.713 166.064 221.495 166.064 228.11C166.064 231.376 163.522 233.95 159.13 233.95C156.118 233.95 153.964 232.954 152.582 231.791L153.715 230.324C154.986 231.321 156.671 232.206 159.24 232.206C162.445 232.206 164.185 230.463 164.185 228.193V228.221Z" fill="#D9852F"/>
<path d="M180.485 232.483C179.435 233.23 177.667 233.867 175.512 233.867C170.926 233.867 168.412 231.597 168.412 225.315C168.412 219.032 171.866 216.846 175.236 216.846C179.076 216.846 181.065 219.364 181.065 223.267C181.065 224.069 181.01 225.121 180.9 226.09H170.208C170.457 230.573 172.308 232.179 175.733 232.179C177.363 232.179 178.91 231.57 179.629 230.989L180.458 232.455L180.485 232.483ZM170.236 224.457H179.242C179.27 224.014 179.27 223.599 179.27 223.35C179.27 220.278 177.944 218.506 175.015 218.506C172.805 218.506 170.457 219.862 170.208 224.457H170.236Z" fill="#D9852F"/>
<path d="M196.84 233.673H195.072V222.685C195.072 219.945 193.691 218.423 191.177 218.423C188.912 218.423 187.171 219.945 186.563 221.661V233.673H184.795V217.067H186.121L186.508 218.894H186.619C186.922 218.451 188.58 216.762 191.426 216.762C194.741 216.762 196.785 218.589 196.868 222.243V233.673H196.84Z" fill="#D9852F"/>
<path d="M202.835 210.618C203.691 210.618 204.327 211.255 204.327 212.141C204.327 213.026 203.691 213.607 202.835 213.607C201.979 213.607 201.371 212.971 201.371 212.141C201.371 211.31 202.006 210.618 202.835 210.618ZM202.089 217.095H203.857V233.701H202.089V217.095Z" fill="#D9852F"/>
<path d="M208.029 225.425C208.029 220.277 209.908 216.762 214.798 216.762C219.688 216.762 221.373 220.167 221.373 225.232C221.373 230.297 219.494 233.922 214.604 233.922C209.714 233.922 208.029 230.463 208.029 225.425ZM214.798 232.262C218.251 232.262 219.522 230.02 219.522 225.425C219.522 220.831 218.058 218.423 214.604 218.423C211.151 218.423 209.88 220.637 209.88 225.232C209.88 229.826 211.344 232.262 214.798 232.262Z" fill="#D9852F"/>
<path d="M232.589 218.921C231.981 218.728 231.373 218.645 230.738 218.645C229.053 218.645 227.368 219.309 226.622 221.025V233.673H224.854V217.067H226.18L226.566 218.755H226.677C227.45 217.676 228.97 216.818 230.821 216.818C231.65 216.818 232.202 216.901 232.561 217.012V218.921H232.589Z" fill="#D9852F"/>
<path d="M250.353 211.781C253.364 211.781 255.05 212.722 255.795 213.358L254.663 214.825C253.723 214.078 252.37 213.524 250.132 213.524C246.126 213.524 243.612 216.43 243.612 222.824C243.612 229.217 245.96 232.206 250.298 232.206C252.535 232.206 253.806 231.736 254.608 231.016L255.657 232.345C254.718 233.23 252.895 233.978 249.994 233.978C244.247 233.978 241.706 229.743 241.706 223.018C241.706 215.877 244.745 211.781 250.353 211.781Z" fill="#D9852F"/>
<path d="M269.112 221.744V229.494C269.112 231.127 269.609 232.289 270.852 232.289H271.239V233.673C271.239 233.673 270.935 233.729 270.742 233.729C269.084 233.729 268.089 232.815 267.73 231.653H267.62C266.791 232.566 265.437 233.95 262.509 233.95C259.58 233.95 257.757 231.791 257.757 229.605C257.757 225.979 261.404 224.152 267.426 224.208V222.27C267.426 219.309 266.045 218.451 263.614 218.451C261.183 218.451 260.105 219.752 259.58 220.527L258.254 219.419C258.807 218.645 260.354 216.79 263.697 216.79C267.04 216.79 269.084 218.368 269.084 221.689L269.112 221.744ZM267.454 225.813C263.172 225.702 259.58 226.726 259.58 229.494C259.58 231.127 260.741 232.455 262.868 232.455C264.995 232.455 266.653 231.155 267.454 229.909V225.813Z" fill="#D9852F"/>
<path d="M282.179 218.921C281.571 218.728 280.964 218.645 280.328 218.645C278.643 218.645 276.958 219.309 276.212 221.025V233.673H274.444V217.067H275.77L276.156 218.755H276.267C277.041 217.676 278.56 216.818 280.411 216.818C281.24 216.818 281.792 216.901 282.151 217.012V218.921H282.179Z" fill="#D9852F"/>
<path d="M295.219 232.483C294.169 233.23 292.401 233.867 290.246 233.867C285.66 233.867 283.146 231.597 283.146 225.315C283.146 219.032 286.599 216.846 289.97 216.846C293.81 216.846 295.799 219.364 295.799 223.267C295.799 224.069 295.744 225.121 295.633 226.09H284.942C285.19 230.573 287.041 232.179 290.467 232.179C292.097 232.179 293.644 231.57 294.362 230.989L295.191 232.455L295.219 232.483ZM284.969 224.457H293.976C294.003 224.014 294.003 223.599 294.003 223.35C294.003 220.278 292.677 218.506 289.749 218.506C287.539 218.506 285.19 219.862 284.942 224.457H284.969Z" fill="#D9852F"/>
<path d="M316.795 74.1149C317.348 73.9212 317.652 73.3677 317.514 72.7864C317.403 72.399 306.988 33.3189 265.631 12.8102C225.296 -7.17261 180.54 0.909096 176.231 6.02935C170.236 13.17 154.212 25.431 137.747 33.5957C133.63 35.6438 126.558 38.4115 122.359 40.0445C120.646 40.7087 119.541 41.1516 119.126 41.3453C118.242 41.7605 117.8 42.7845 117.994 44.03C118.325 46.1888 120.342 48.7351 124.016 49.2333C129.348 49.9529 157.721 41.7328 170.346 36.3357C170.899 36.0867 171.175 35.4501 170.926 34.8965C170.678 34.343 170.042 34.0939 169.49 34.3153C156.671 39.8231 128.823 47.6833 124.32 47.0744C121.861 46.7423 120.839 45.2754 120.508 44.6665C120.148 44.0023 120.148 43.5041 120.176 43.3104C120.646 43.1166 121.723 42.6738 123.16 42.1203C127.414 40.4596 134.514 37.6642 138.714 35.5885C155.428 27.2853 171.783 14.7753 177.916 7.44088C181.121 3.62145 223.528 -5.62269 264.664 14.7753C305.109 34.8412 315.304 72.9525 315.386 73.3123C315.525 73.8935 316.132 74.2533 316.713 74.1149C316.713 74.1149 316.768 74.1149 316.795 74.1149Z" fill="#D9852F"/>
<path d="M224.494 38.6606C226.566 37.9687 228.39 37.083 229.882 36.0313C236.705 31.1048 243.281 24.49 243.336 24.4346C243.75 23.9918 243.75 23.2999 243.336 22.8847C242.894 22.4419 242.203 22.4695 241.789 22.8847C241.734 22.94 235.269 29.4442 228.611 34.26C222.312 38.799 207.034 40.1275 195.293 37.1661C189.16 35.6161 183.358 36.6956 178.717 37.5535C175.153 38.2178 172.087 38.7713 171.313 37.4982C170.761 36.5848 170.871 35.9759 171.009 35.5885C171.672 33.8448 174.905 32.0735 180.568 30.3298C187.143 28.3371 206.813 25.1265 207.007 25.0712C207.615 24.9605 208.001 24.4069 207.918 23.798C207.808 23.1891 207.255 22.8017 206.648 22.8847C205.846 23.0231 186.618 26.1506 179.933 28.1987C173.385 30.1914 169.904 32.2949 168.965 34.7858C168.633 35.6438 168.468 37 169.434 38.6329C171.009 41.2069 174.573 40.5427 179.131 39.7124C183.579 38.882 189.105 37.858 194.768 39.2972C203.553 41.539 216.068 41.5667 224.522 38.6883L224.494 38.6606Z" fill="#D9852F"/>
<path d="M265.327 52.4438C265.327 52.4438 265.465 52.3884 265.52 52.3608C266.045 52.0563 266.239 51.3921 265.935 50.8662C265.52 50.1466 255.602 33.2913 238.17 27.1193C237.59 26.9255 236.982 27.23 236.761 27.7835C236.568 28.3647 236.872 29.0013 237.424 29.1951C254.111 35.0903 263.918 51.7795 264.029 51.9456C264.305 52.4161 264.857 52.6099 265.327 52.4438Z" fill="#D9852F"/>
<path d="M131.31 65.618C132.719 65.1475 134.238 64.5109 135.813 63.7636C144.819 59.4737 169.932 39.7122 171.009 38.8819C171.479 38.4945 171.562 37.8025 171.203 37.332C170.816 36.8615 170.125 36.7785 169.656 37.1383C169.407 37.332 143.659 57.564 134.874 61.7709C127.028 65.535 123.602 64.6216 122.746 64.2618C122.165 64.0127 121.779 63.6529 121.641 63.2101C121.806 62.2967 126.033 59.1415 129.459 56.5953C133.575 53.5231 138.686 49.7313 143.106 45.4414C143.549 45.0262 143.549 44.3066 143.106 43.8915C142.692 43.4486 141.974 43.4486 141.559 43.8915C137.25 48.0707 132.194 51.8348 128.133 54.8516C121.502 59.7781 118.85 61.8539 119.541 63.9297C119.9 64.9814 120.701 65.8117 121.889 66.3099C124.072 67.2233 127.332 67.0018 131.31 65.6457V65.618Z" fill="#D9852F"/>
<path d="M135.288 73.0078C138.133 72.0391 142.139 69.7695 147.83 65.9501C161.423 56.8167 177.087 39.9337 177.253 39.7676C177.667 39.3248 177.64 38.6328 177.198 38.2177C176.755 37.8025 176.065 37.8302 175.65 38.273C175.485 38.4391 159.986 55.156 146.615 64.1234C138.631 69.4928 133.713 71.9007 131.945 71.2641C131.724 71.1811 131.448 71.015 131.254 70.4061C131.227 69.6312 133.52 66.3929 136.172 63.5145C136.586 63.0717 136.559 62.3798 136.117 61.9646C135.675 61.5494 134.984 61.5771 134.569 62.02C132.276 64.5109 128.492 68.9946 129.182 71.098C129.569 72.2605 130.26 73.0078 131.254 73.3676C132.249 73.6997 133.575 73.6166 135.315 73.0354L135.288 73.0078Z" fill="#D9852F"/>
<path d="M149.903 69.1053C152.721 68.1643 156.422 66.1162 161.368 62.9056C171.23 56.5122 185.431 39.6292 186.038 38.9096C186.425 38.4391 186.37 37.7472 185.9 37.3597C185.431 36.9722 184.74 37.0276 184.353 37.4981C184.215 37.6641 169.739 54.8516 160.18 61.0512C151.256 66.8358 146.56 68.6348 144.985 66.8634C144.571 66.4206 143.88 66.3652 143.438 66.7804C142.996 67.1956 142.941 67.8875 143.355 68.3303C144.736 69.8526 146.753 70.157 149.903 69.1053Z" fill="#D9852F"/>
<path d="M256.569 206.66C258.973 205.858 260.603 204.972 261.266 204.197C267.261 197.056 283.284 184.795 299.75 176.631C303.866 174.583 310.939 171.815 315.138 170.182C316.823 169.518 317.956 169.075 318.37 168.881C319.254 168.466 319.696 167.442 319.503 166.196C319.171 164.038 317.155 161.491 313.48 160.993C308.148 160.274 279.776 168.494 267.15 173.891C266.598 174.14 266.321 174.776 266.57 175.33C266.819 175.883 267.454 176.105 268.007 175.911C280.826 170.431 308.673 162.543 313.176 163.152C315.635 163.484 316.657 164.951 316.989 165.56C317.348 166.224 317.348 166.722 317.32 166.916C316.851 167.11 315.773 167.525 314.337 168.106C310.082 169.767 302.982 172.562 298.755 174.638C282.041 182.941 265.686 195.451 259.553 202.786C256.348 206.605 213.941 215.849 172.805 195.423C132.387 175.358 122.165 137.274 122.082 136.886C121.944 136.305 121.336 135.945 120.729 136.084C120.149 136.25 119.789 136.831 119.928 137.412C120.038 137.8 130.453 176.88 171.81 197.389C205.957 214.327 243.253 211.144 256.514 206.633L256.569 206.66Z" fill="#D9852F"/>
<path d="M259.359 181.502C264.774 179.675 267.73 177.738 268.587 175.468C268.918 174.61 269.084 173.254 268.117 171.621C266.542 169.047 262.979 169.711 258.42 170.542C253.972 171.372 248.447 172.396 242.783 170.957C231.843 168.189 215.101 168.826 207.642 174.195C200.818 179.122 194.243 185.736 194.188 185.792C193.774 186.235 193.774 186.927 194.188 187.342C194.63 187.785 195.321 187.757 195.735 187.342C195.79 187.286 202.255 180.782 208.913 175.967C215.212 171.427 230.489 170.099 242.231 173.06C248.364 174.61 254.138 173.531 258.807 172.673C262.371 172.009 265.437 171.455 266.211 172.728C266.763 173.642 266.653 174.251 266.515 174.638C265.852 176.409 262.619 178.181 256.956 179.897C250.381 181.917 230.711 185.1 230.517 185.155C229.909 185.238 229.523 185.82 229.605 186.428C229.716 187.037 230.268 187.425 230.876 187.342C231.677 187.203 250.906 184.076 257.591 182.028C258.199 181.834 258.779 181.64 259.359 181.474V181.502Z" fill="#D9852F"/>
<path d="M200.073 183.135C200.377 183.024 200.653 182.803 200.763 182.471C200.957 181.889 200.653 181.253 200.1 181.059C183.414 175.164 173.606 158.475 173.496 158.309C173.192 157.783 172.529 157.617 172.004 157.893C171.479 158.198 171.286 158.862 171.589 159.388C172.004 160.108 181.894 176.963 199.354 183.135C199.603 183.218 199.852 183.218 200.073 183.135Z" fill="#D9852F"/>
<path d="M295.523 166.612C295.661 166.556 295.827 166.473 295.937 166.363C300.247 162.183 305.303 158.419 309.364 155.402C315.994 150.476 318.646 148.4 317.956 146.324C317.597 145.273 316.795 144.442 315.607 143.944C312.651 142.699 307.706 143.584 301.684 146.463C292.677 150.78 267.565 170.514 266.487 171.344C266.017 171.732 265.935 172.424 266.294 172.894C266.681 173.365 267.371 173.448 267.841 173.088C268.089 172.894 293.838 152.662 302.623 148.456C310.469 144.691 313.895 145.605 314.751 145.965C315.331 146.214 315.718 146.574 315.856 147.016C315.69 147.93 311.463 151.085 308.038 153.631C303.921 156.703 298.81 160.495 294.39 164.785C293.948 165.2 293.948 165.892 294.39 166.335C294.694 166.639 295.136 166.75 295.523 166.612Z" fill="#D9852F"/>
<path d="M261.431 172.258C261.597 172.202 261.763 172.092 261.873 171.953C262.039 171.787 277.538 155.07 290.909 146.103C298.893 140.734 303.811 138.353 305.579 138.962C305.8 139.045 306.076 139.211 306.27 139.82C306.297 140.595 304.004 143.833 301.352 146.712C300.938 147.155 300.965 147.847 301.407 148.262C301.849 148.677 302.54 148.649 302.954 148.206C305.247 145.716 309.032 141.232 308.342 139.128C307.955 137.966 307.264 137.219 306.27 136.859C303.645 135.946 298.838 138.104 289.666 144.276C276.074 153.41 260.409 170.293 260.243 170.459C259.829 170.902 259.857 171.594 260.299 172.009C260.603 172.286 261.017 172.369 261.404 172.258H261.431Z" fill="#D9852F"/>
<path d="M252.646 173.088C252.839 173.033 253.005 172.922 253.143 172.756C253.281 172.59 267.758 155.402 277.317 149.203C286.24 143.418 290.937 141.619 292.511 143.391C292.926 143.833 293.616 143.889 294.059 143.474C294.501 143.059 294.556 142.367 294.141 141.924C291.544 139.018 286.655 140.512 276.101 147.348C266.238 153.742 252.038 170.625 251.431 171.344C251.044 171.815 251.099 172.507 251.569 172.894C251.873 173.143 252.287 173.227 252.618 173.088H252.646Z" fill="#D9852F"/>
<path d="M46.993 80.3977L38.6774 89.5034C36.4673 87.1232 33.3178 84.743 27.7925 84.743C19.9741 84.743 13.3437 89.0883 13.3437 103.204C13.3437 117.319 18.0955 124.321 28.0411 124.321C29.8369 124.321 32.4614 123.989 33.6493 123.463V103.287H46.6339V129.58C42.2965 132.569 36.3568 134.866 25.3061 134.866C8.39852 134.866 0 124.653 0 104.726C0 83.193 12.4873 73.4784 28.2898 73.4784C40.0035 73.4784 45.3631 78.4879 46.993 80.37V80.3977Z" fill="#D9852F"/>
<path d="M52.4907 110.178C52.4907 95.3708 58.6791 85.075 74.5921 85.075C90.5051 85.075 96.3343 94.9557 96.3343 109.846C96.3343 124.736 90.0354 134.949 74.1501 134.949C58.2647 134.949 52.4907 125.068 52.4907 110.178ZM74.5921 124.902C81.1396 124.902 83.184 120.142 83.184 110.344C83.184 100.546 80.7252 95.1217 74.0948 95.1217C68.2379 95.1217 65.6963 99.8822 65.6963 109.68C65.6963 119.478 68.1551 124.902 74.6197 124.902H74.5921Z" fill="#D9852F"/>
<path d="M115.452 69.4928V118.869C115.452 122.439 117.055 123.629 119.458 123.629C120.397 123.629 120.812 123.546 121.254 123.463V133.593C119.734 134.202 117.939 134.783 115.148 134.783C107.33 134.783 102.661 130.189 102.661 122.19V69.4928H115.48H115.452Z" fill="#D9852F"/>
<path d="M152.914 69.4928H165.65V134.008H155.621L153.577 130.106H153.245C151.892 131.462 147.969 134.783 141.532 134.783C131.42 134.783 124.044 128.141 124.044 112.475C124.044 92.2157 134.929 85.6562 145.04 85.6562C149.543 85.6562 151.422 86.2651 152.941 86.6803V69.4928H152.914ZM153.245 120.557V97.7511C152.057 96.8101 149.24 96.0628 146.864 96.0628C141.587 96.0628 137.001 98.36 137.001 111.396C137.001 120.751 140.399 124.681 145.317 124.681C148.88 124.681 151.422 123.076 153.218 120.585L153.245 120.557Z" fill="#D9852F"/>
<path d="M212.366 129.58C208.637 132.652 203.968 134.949 194.768 134.949C179.656 134.949 171.921 126.452 171.921 109.846C171.921 94.2639 180.596 84.9921 194.437 84.9921C206.675 84.9921 213.72 92.7416 213.72 104.477C213.72 106.94 213.637 109.32 213.112 113.084H184.491C184.657 120.668 188.055 124.819 196.205 124.819C201.399 124.819 204.962 122.356 206.731 120.474L212.339 129.58H212.366ZM184.767 104.56H201.675V103.287C201.675 97.6682 199.299 94.679 194.105 94.679C188.331 94.679 184.933 98.9413 184.767 104.56Z" fill="#D9852F"/>
<path d="M260.796 134.008H247.977V103.453C247.977 98.526 245.684 95.6199 241.347 95.6199C237.617 95.6199 234.551 97.8341 233.114 101.321V134.008H220.295V85.9329H230.324L232.866 90.4443H233.197C236.098 86.957 241.098 84.7428 246.099 84.7428C255.437 84.7428 260.796 89.9461 260.796 100.74V134.008Z" fill="#D9852F"/>
<path d="M318.232 74.364V134.036H305.248V109.597H283.588V134.036H270.604V74.364H283.588V98.8859H305.248V74.364H318.232Z" fill="#D9852F"/>
<path d="M362.656 100.989V120.225C362.656 122.937 363.678 124.127 365.971 124.127H367.325V132.984C365.281 134.257 363.07 134.589 360.943 134.589C356.357 134.589 353.733 132.375 352.268 129.386H351.937C350.141 131.766 346.577 134.755 339.698 134.755C330.36 134.755 325.498 128.362 325.498 121.47C325.498 110.399 335.444 105.307 350.555 106.054V102.318C350.555 96.9484 347.572 95.3431 343.676 95.3431C339.09 95.3431 336.632 97.9724 335.444 100.795L326.354 94.07C328.233 91.4407 332.985 85.0472 343.594 85.0472C355.832 85.0472 362.628 89.3095 362.628 100.962L362.656 100.989ZM350.583 114.772C342.185 114.164 338.013 116.129 338.013 120.308C338.013 123.02 339.892 124.985 343.207 124.985C346.522 124.985 349.147 123.546 350.611 121.581V114.772H350.583Z" fill="#D9852F"/>
<path d="M412.439 134.008H399.62V103.453C399.62 98.526 397.327 95.6199 392.99 95.6199C389.26 95.6199 386.194 97.8341 384.757 101.321V134.008H371.938V85.9329H381.967L384.509 90.4443H384.84C387.741 86.957 392.741 84.7428 397.742 84.7428C407.08 84.7428 412.439 89.9461 412.439 100.74V134.008Z" fill="#D9852F"/>
<path d="M447.415 69.4928H460.151V134.008H450.122L448.078 130.106H447.746C446.392 131.462 442.469 134.783 436.032 134.783C425.921 134.783 418.545 128.141 418.545 112.475C418.545 92.2157 429.43 85.6562 439.541 85.6562C444.044 85.6562 445.923 86.2651 447.442 86.6803V69.4928H447.415ZM447.746 120.557V97.7511C446.558 96.8101 443.74 96.0628 441.364 96.0628C436.088 96.0628 431.502 98.36 431.502 111.396C431.502 120.751 434.9 124.681 439.817 124.681C443.381 124.681 445.923 123.076 447.718 120.585L447.746 120.557Z" fill="#D9852F"/>
<path d="M467.14 99.9652C467.14 92.1326 473.853 85.075 484.987 85.075C493.662 85.075 499.187 88.1471 502.309 91.8005L494.076 99.8822C492.391 97.9171 489.076 95.3708 484.655 95.3708C481.755 95.3708 479.904 96.8931 479.904 99.1072C479.904 106.331 502.502 103.785 502.502 119.865C502.502 126.258 497.502 134.838 483.55 134.838C473.025 134.838 466.643 130.41 464.018 127.615L471.671 118.758C473.798 121.221 478.467 124.709 484.241 124.709C488.247 124.709 489.766 122.826 489.766 120.612C489.766 113.638 467.168 115.935 467.168 99.9375L467.14 99.9652Z" fill="#D9852F"/>
</svg>
