<svg width="204" height="213" viewBox="0 0 204 213" fill="none" xmlns="http://www.w3.org/2000/svg">
<path d="M201.215 74.8139C201.774 74.6184 202.082 74.0596 201.942 73.4729C201.83 73.0818 191.291 33.6333 149.441 12.9312C108.626 -7.24012 63.3372 0.917792 58.9761 6.08633C52.9097 13.2944 36.6954 25.6709 20.0337 33.9126C15.8683 35.9801 8.71167 38.7739 4.46239 40.4222C2.72914 41.0927 1.61091 41.5397 1.19157 41.7353C0.296985 42.1544 -0.150307 43.1881 0.0453831 44.4453C0.380852 46.6245 2.42162 49.1948 6.13974 49.6976C11.5352 50.424 40.2457 42.1264 53.0215 36.6785C53.5806 36.4271 53.8602 35.7845 53.6086 35.2257C53.357 34.667 52.714 34.4155 52.1549 34.639C39.1834 40.1987 11.004 48.1331 6.44725 47.5185C3.95919 47.1832 2.92483 45.7025 2.58936 45.0879C2.22593 44.4173 2.22593 43.9145 2.25389 43.7189C2.72914 43.5233 3.81941 43.0763 5.27311 42.5176C9.57829 40.8413 16.7629 38.0195 21.0122 35.9242C37.9254 27.5428 54.4752 14.9148 60.6814 7.51117C63.9243 3.65572 106.836 -5.67559 148.462 14.9148C189.39 35.1698 199.705 73.6405 199.789 74.0037C199.929 74.5904 200.544 74.9536 201.131 74.8139C201.131 74.8139 201.187 74.8139 201.215 74.8139Z" fill="#D9852F"/>
<path d="M107.815 39.0252C109.911 38.3267 111.757 37.4327 113.266 36.3711C120.171 31.3981 126.825 24.7209 126.881 24.665C127.3 24.218 127.3 23.5196 126.881 23.1005C126.433 22.6535 125.734 22.6814 125.315 23.1005C125.259 23.1564 118.718 29.7218 111.98 34.583C105.606 39.1649 90.1468 40.5059 78.2656 37.5165C72.0594 35.952 66.1887 37.0416 61.4921 37.9077C57.8858 38.5782 54.7827 39.1369 54 37.8518C53.4409 36.9298 53.5527 36.3152 53.6925 35.9241C54.3634 34.164 57.6342 32.3759 63.3652 30.6158C70.0186 28.6043 89.9231 25.3635 90.1188 25.3076C90.7339 25.1959 91.1252 24.6371 91.0414 24.0225C90.9295 23.4078 90.3704 23.0167 89.7554 23.1005C88.9447 23.2402 69.4875 26.3972 62.7222 28.4646C56.0967 30.4761 52.5742 32.5994 51.6237 35.1139C51.2883 35.9799 51.1205 37.3489 52.099 38.9973C53.6925 41.5955 57.2988 40.925 61.9115 40.0868C66.4123 39.2487 72.0035 38.215 77.7344 39.6678C86.6243 41.9307 99.2883 41.9587 107.843 39.0531L107.815 39.0252Z" fill="#D9852F"/>
<path d="M149.133 52.9384C149.133 52.9384 149.273 52.8825 149.329 52.8546C149.86 52.5473 150.056 51.8767 149.748 51.3459C149.329 50.6195 139.293 33.6053 121.653 27.3751C121.066 27.1795 120.451 27.4868 120.227 28.0456C120.031 28.6323 120.339 29.2749 120.898 29.4704C137.783 35.4212 147.707 52.2679 147.819 52.4355C148.099 52.9105 148.658 53.106 149.133 52.9384Z" fill="#D9852F"/>
<path d="M13.5198 66.2368C14.9455 65.7619 16.4831 65.1193 18.0766 64.365C27.1902 60.0346 52.6019 40.0868 53.6922 39.2487C54.1675 38.8576 54.2513 38.1591 53.8879 37.6842C53.4965 37.2092 52.7976 37.1254 52.3224 37.4886C52.0708 37.6842 26.016 58.1069 17.1261 62.3535C9.18666 66.153 5.72015 65.2311 4.85352 64.8679C4.26645 64.6164 3.87507 64.2532 3.73529 63.8062C3.90302 62.8843 8.18025 59.6993 11.6468 57.129C15.8122 54.0279 20.984 50.2004 25.4569 45.87C25.9042 45.4509 25.9042 44.7245 25.4569 44.3055C25.0376 43.8585 24.3107 43.8585 23.8914 44.3055C19.5303 48.5241 14.4144 52.3237 10.3049 55.3689C3.59551 60.3419 0.911759 62.4373 1.61065 64.5326C1.97408 65.5943 2.78479 66.4324 3.98689 66.9353C6.1954 67.8573 9.49418 67.6337 13.5198 66.2648V66.2368Z" fill="#D9852F"/>
<path d="M17.5458 73.6964C20.4253 72.7185 24.4788 70.4276 30.2377 66.5722C43.992 57.3526 59.8429 40.3104 60.0106 40.1428C60.4299 39.6958 60.402 38.9973 59.9547 38.5782C59.5074 38.1592 58.8085 38.1871 58.3892 38.6341C58.2214 38.8017 42.5383 55.6763 29.0077 64.7283C20.9285 70.1482 15.9523 72.5789 14.1632 71.9363C13.9395 71.8525 13.66 71.6848 13.4643 71.0702C13.4363 70.2879 15.7566 67.0192 18.4404 64.1136C18.8597 63.6666 18.8318 62.9682 18.3845 62.5491C17.9372 62.13 17.2383 62.158 16.819 62.605C14.4986 65.1194 10.6687 69.6454 11.3676 71.7687C11.759 72.9421 12.4579 73.6964 13.4643 74.0596C14.4707 74.3948 15.8126 74.311 17.5738 73.7243L17.5458 73.6964Z" fill="#D9852F"/>
<path d="M32.334 69.7571C35.1855 68.8072 38.9316 66.7398 43.9356 63.499C53.9159 57.0453 68.2851 40.0031 68.9001 39.2767C69.2915 38.8018 69.2356 38.1033 68.7604 37.7122C68.2851 37.3211 67.5862 37.3769 67.1948 37.8519C67.0551 38.0195 52.4062 55.369 42.7336 61.6272C33.7038 67.4662 28.9514 69.2822 27.3579 67.4942C26.9386 67.0471 26.2397 66.9913 25.7924 67.4103C25.3451 67.8294 25.2892 68.5279 25.7085 68.9749C27.1063 70.5115 29.1471 70.8188 32.334 69.7571Z" fill="#D9852F"/>
<path d="M140.271 208.609C142.703 207.799 144.353 206.905 145.024 206.123C151.09 198.915 167.304 186.538 183.966 178.296C188.131 176.229 195.288 173.435 199.537 171.787C201.243 171.116 202.389 170.669 202.808 170.474C203.703 170.055 204.15 169.021 203.954 167.764C203.619 165.584 201.578 163.014 197.86 162.511C192.465 161.785 163.754 170.083 150.978 175.53C150.419 175.782 150.14 176.424 150.391 176.983C150.643 177.542 151.286 177.765 151.845 177.57C164.816 172.038 192.996 164.076 197.553 164.69C200.041 165.026 201.075 166.506 201.41 167.121C201.774 167.792 201.774 168.294 201.746 168.49C201.271 168.686 200.18 169.105 198.727 169.691C194.422 171.368 187.237 174.189 182.96 176.285C166.046 184.666 149.497 197.294 143.29 204.698C140.048 208.553 97.1355 217.885 55.5094 197.266C14.666 177.039 4.32241 138.568 4.21059 138.177C4.07081 137.591 3.45578 137.227 2.84076 137.367C2.25368 137.535 1.89026 138.121 2.03004 138.708C2.14186 139.099 12.6812 178.548 54.5309 199.25C89.0842 216.348 126.825 213.135 140.243 208.581L140.271 208.609Z" fill="#D9852F"/>
<path d="M143.095 183.214C148.574 181.37 151.566 179.414 152.432 177.123C152.768 176.257 152.935 174.888 151.957 173.24C150.364 170.641 146.757 171.312 142.145 172.15C137.644 172.988 132.052 174.022 126.322 172.569C115.251 169.775 98.3099 170.418 90.7618 175.838C83.8568 180.811 77.2033 187.488 77.1474 187.544C76.7281 187.991 76.7281 188.689 77.1474 189.108C77.5947 189.555 78.2936 189.528 78.7129 189.108C78.7688 189.053 85.3105 182.487 92.0478 177.626C98.4217 173.044 113.881 171.703 125.762 174.692C131.969 176.257 137.811 175.167 142.536 174.301C146.142 173.631 149.245 173.072 150.028 174.357C150.587 175.279 150.475 175.894 150.336 176.285C149.665 178.073 146.394 179.861 140.663 181.593C134.009 183.633 114.105 186.846 113.909 186.901C113.294 186.985 112.903 187.572 112.987 188.187C113.098 188.801 113.658 189.192 114.273 189.108C115.083 188.969 134.541 185.812 141.306 183.744C141.921 183.549 142.508 183.353 143.095 183.186V183.214Z" fill="#D9852F"/>
<path d="M83.1016 184.862C83.4091 184.75 83.6886 184.527 83.8005 184.191C83.9962 183.605 83.6886 182.962 83.1295 182.766C66.2443 176.816 56.32 159.969 56.2081 159.801C55.9006 159.271 55.2297 159.103 54.6985 159.382C54.1674 159.69 53.9717 160.36 54.2792 160.891C54.6985 161.617 64.7067 178.632 82.3747 184.862C82.6263 184.946 82.8779 184.946 83.1016 184.862Z" fill="#D9852F"/>
<path d="M179.689 168.183C179.829 168.127 179.997 168.043 180.108 167.931C184.469 163.713 189.585 159.913 193.695 156.868C200.404 151.895 203.088 149.799 202.389 147.704C202.026 146.642 201.215 145.804 200.013 145.301C197.022 144.044 192.018 144.938 185.923 147.844C176.81 152.202 151.398 172.122 150.308 172.96C149.832 173.351 149.748 174.05 150.112 174.525C150.503 175 151.202 175.083 151.677 174.72C151.929 174.525 177.984 154.102 186.874 149.855C194.813 146.056 198.28 146.978 199.146 147.341C199.733 147.592 200.125 147.956 200.264 148.403C200.097 149.324 195.819 152.509 192.353 155.08C188.188 158.181 183.016 162.008 178.543 166.339C178.096 166.758 178.096 167.456 178.543 167.903C178.85 168.211 179.298 168.322 179.689 168.183Z" fill="#D9852F"/>
<path d="M145.191 173.882C145.359 173.826 145.527 173.714 145.639 173.575C145.806 173.407 161.49 156.533 175.02 147.481C183.099 142.061 188.076 139.658 189.865 140.273C190.088 140.356 190.368 140.524 190.564 141.139C190.592 141.921 188.271 145.19 185.587 148.095C185.168 148.542 185.196 149.241 185.643 149.66C186.091 150.079 186.79 150.051 187.209 149.604C189.529 147.09 193.359 142.564 192.66 140.44C192.269 139.267 191.57 138.513 190.564 138.149C187.908 137.227 183.044 139.407 173.762 145.637C160.008 154.856 144.157 171.899 143.989 172.066C143.57 172.513 143.598 173.212 144.045 173.631C144.353 173.91 144.772 173.994 145.163 173.882H145.191Z" fill="#D9852F"/>
<path d="M136.302 174.72C136.497 174.664 136.665 174.553 136.805 174.385C136.945 174.217 151.593 156.868 161.266 150.61C170.296 144.771 175.048 142.955 176.642 144.743C177.061 145.19 177.76 145.246 178.207 144.826C178.655 144.407 178.71 143.709 178.291 143.262C175.663 140.328 170.715 141.837 160.036 148.738C150.056 155.192 135.687 172.234 135.071 172.96C134.68 173.435 134.736 174.134 135.211 174.525C135.519 174.776 135.938 174.86 136.274 174.72H136.302Z" fill="#D9852F"/>
<path d="M94.0885 134.797C94.0885 153.962 80.6418 163.433 61.8276 163.433C44.495 163.433 37.534 158.572 33.5364 153.851L44.1316 140.021C47.6261 144.883 54.4752 148.235 61.8276 148.235C71.5562 148.235 75.6657 144.631 75.6657 134.657V131.053H75.1625C72.5346 133.428 67.6983 135.048 61.3244 135.048C46.7594 135.048 33.6762 127.84 33.6762 102.556C33.6762 82.7483 44.8864 66.6839 67.9499 66.6839C80.2784 66.6839 87.8823 68.1646 94.1165 70.9305V134.797H94.0885ZM67.8101 81.4911C57.9697 81.4911 52.3506 88.3359 52.3506 101.802C52.3506 116.246 57.3267 119.85 65.6855 119.85C69.795 119.85 73.1497 118.593 75.5259 116.246V82.7483C72.8981 81.8822 70.8014 81.4911 67.8101 81.4911Z" fill="#D9852F"/>
<path d="M170.464 90.4591V137.898H151.649V94.2028C151.649 86.7434 148.295 82.9997 141.921 82.9997C137.448 82.9997 132.192 86.3522 129.844 90.7106V137.898H111.03V43.5232H129.844V74.6462H130.347C134.345 70.5393 140.803 67.047 148.91 67.047C162.608 67.047 170.464 74.6462 170.464 90.4591Z" fill="#D9852F"/>
</svg>
