<svg width="58" height="57" viewBox="0 0 58 57" fill="none" xmlns="http://www.w3.org/2000/svg">
<path d="M0 2.44286C0 1.79497 0.261905 1.17362 0.728099 0.715496C1.19429 0.257371 1.82659 0 2.48589 0H4.33539C7.48418 0 9.37345 2.08131 10.4507 4.01606C11.1699 5.30588 11.6903 6.80091 12.098 8.15589C12.2083 8.14733 12.3188 8.14298 12.4294 8.14286H53.8543C56.6053 8.14286 58.594 10.729 57.8383 13.3315L51.7794 34.2065C51.2362 36.0789 50.0869 37.7264 48.5056 38.8994C46.9243 40.0725 44.9971 40.7073 43.0158 40.7078H23.3011C21.304 40.7078 19.3623 40.0634 17.7742 38.8736C16.1861 37.6837 15.0396 36.0143 14.511 34.1218L11.9919 25.093L7.81563 11.2567L7.81232 11.2306C7.29525 9.38383 6.81133 7.65428 6.08877 6.36446C5.39603 5.11046 4.8392 4.88571 4.3387 4.88571H2.48589C1.82659 4.88571 1.19429 4.62834 0.728099 4.17022C0.261905 3.71209 0 3.09074 0 2.44286ZM21.5444 57C23.3025 57 24.9886 56.3137 26.2318 55.092C27.475 53.8703 28.1734 52.2134 28.1734 50.4857C28.1734 48.758 27.475 47.1011 26.2318 45.8794C24.9886 44.6578 23.3025 43.9714 21.5444 43.9714C19.7862 43.9714 18.1001 44.6578 16.8569 45.8794C15.6137 47.1011 14.9153 48.758 14.9153 50.4857C14.9153 52.2134 15.6137 53.8703 16.8569 55.092C18.1001 56.3137 19.7862 57 21.5444 57ZM44.746 57C46.5041 57 48.1902 56.3137 49.4334 55.092C50.6766 53.8703 51.375 52.2134 51.375 50.4857C51.375 48.758 50.6766 47.1011 49.4334 45.8794C48.1902 44.6578 46.5041 43.9714 44.746 43.9714C42.9879 43.9714 41.3017 44.6578 40.0585 45.8794C38.8154 47.1011 38.1169 48.758 38.1169 50.4857C38.1169 52.2134 38.8154 53.8703 40.0585 55.092C41.3017 56.3137 42.9879 57 44.746 57Z" fill="#F2F2F2"/>
</svg>
