<svg width="32" height="25" viewBox="0 0 32 25" fill="none" xmlns="http://www.w3.org/2000/svg">
<path d="M29.8667 24.89H2.13333C1.56754 24.89 1.02492 24.6278 0.624839 24.161C0.224761 23.6942 0 23.0611 0 22.401L0 2.489C0 1.82888 0.224761 1.19579 0.624839 0.729011C1.02492 0.262233 1.56754 0 2.13333 0L29.8667 0C30.4325 0 30.9751 0.262233 31.3752 0.729011C31.7752 1.19579 32 1.82888 32 2.489V22.401C32 23.0611 31.7752 23.6942 31.3752 24.161C30.9751 24.6278 30.4325 24.89 29.8667 24.89ZM25.3191 20.4502H25.3067C25.185 20.4501 25.0647 20.4794 24.9533 20.5364C24.8419 20.5933 24.7419 20.6767 24.6596 20.7811L24.6587 20.7821C24.4835 21.0059 24.3865 21.298 24.3866 21.6011C24.3868 21.9041 24.4842 22.1961 24.6596 22.4197L24.6587 22.4186C24.8204 22.6229 25.0507 22.7505 25.3067 22.7505H25.3191C25.4337 22.7597 25.5475 22.735 25.6517 22.6788C25.756 22.6226 25.8464 22.5367 25.9147 22.429L25.9156 22.4269V22.7028H26.3182V19.6237H25.9156V20.7749C25.85 20.6737 25.7652 20.5917 25.6679 20.5352C25.5706 20.4787 25.4634 20.4493 25.3547 20.4492L25.3173 20.4502H25.3191ZM21.5413 20.4502H21.5209C21.264 20.4502 21.032 20.5747 20.8676 20.7749C20.6922 21.0018 20.5952 21.2966 20.5953 21.6021C20.5955 21.9077 20.6928 22.2023 20.8684 22.429L20.8676 22.428C21.0329 22.6281 21.2649 22.7526 21.5218 22.7526H21.5431L21.5822 22.7536C21.688 22.7537 21.7923 22.7244 21.8864 22.6682C21.9805 22.6119 22.0618 22.5303 22.1236 22.43L22.1253 22.428V22.7038H22.5431V20.5156H22.1262V20.7749C22.0589 20.6691 21.9704 20.5842 21.8684 20.5276C21.7664 20.471 21.6541 20.4444 21.5413 20.4502ZM19.7209 20.4502L19.6836 20.4492C19.4219 20.4492 19.1709 20.5705 18.9859 20.7864C18.8008 21.0023 18.6969 21.2951 18.6969 21.6004C18.6969 21.9057 18.8008 22.1985 18.9859 22.4144C19.1709 22.6302 19.4219 22.7515 19.6836 22.7515L19.7227 22.7505H19.7209L19.7573 22.7515C19.9973 22.7515 20.2169 22.654 20.3902 22.4902L20.3884 22.4923L20.1938 22.1034C20.0652 22.222 19.9078 22.2903 19.744 22.2983H19.7422C19.6605 22.3044 19.5787 22.2902 19.502 22.2566C19.4254 22.223 19.3558 22.1707 19.2978 22.1034C19.1945 21.9636 19.1378 21.7852 19.1379 21.6007C19.1381 21.4162 19.1951 21.2379 19.2987 21.0984L19.2978 21.0995C19.3484 21.0378 19.4093 20.9887 19.4767 20.9552C19.544 20.9217 19.6165 20.9044 19.6898 20.9045H19.7084H19.7076C19.8843 20.905 20.056 20.9739 20.1956 21.1005L20.1938 21.0984L20.3884 20.7095C20.2047 20.5401 19.9773 20.4484 19.7431 20.4492L19.7209 20.4502ZM16.0942 20.4502H16.072C15.9513 20.45 15.8318 20.4787 15.7209 20.5345C15.61 20.5903 15.5102 20.6721 15.4276 20.7749C15.3389 20.8865 15.2699 21.0174 15.2246 21.1601C15.1793 21.3028 15.1586 21.4545 15.1636 21.6066V21.6045L15.1627 21.6522C15.1627 21.9582 15.2667 22.2361 15.4347 22.4394C15.6036 22.6354 15.8364 22.7557 16.0933 22.7557L16.1236 22.7546H16.1218L16.1582 22.7557C16.4364 22.7557 16.6907 22.6385 16.888 22.4446L16.8862 22.4466L16.6916 22.0909C16.5424 22.2452 16.3504 22.3314 16.1511 22.3336C16.0158 22.3473 15.8804 22.2996 15.7744 22.2005C15.6685 22.1015 15.5993 21.9586 15.5813 21.8016V21.7985H16.984V21.6045C16.9965 21.2983 16.9062 20.9985 16.7324 20.7686L16.7333 20.7697C16.6552 20.6687 16.5598 20.5879 16.4532 20.5327C16.3466 20.4775 16.2313 20.4491 16.1147 20.4492H16.0951L16.0942 20.4502ZM13.3591 20.5156V20.9532H13.7476V21.9426C13.7476 22.4798 13.9671 22.7526 14.4 22.7526H14.4151C14.5947 22.7526 14.7609 22.6903 14.9004 22.5846L14.8969 22.5866L14.7849 22.1811C14.6746 22.2537 14.5506 22.2929 14.424 22.2952C14.248 22.2952 14.1582 22.176 14.1582 21.9395V20.9543H14.8249V20.5166H14.1582V19.8529H13.7413V20.5166L13.3591 20.5156ZM11.6107 22.1023L11.4302 22.4757C11.6498 22.6489 11.92 22.7515 12.2107 22.7515H12.2373H12.2356L12.2942 22.7536C12.5067 22.7536 12.7049 22.68 12.8711 22.5534L12.8667 22.5566C12.9372 22.5005 12.995 22.4252 13.035 22.3372C13.075 22.2492 13.0959 22.1511 13.096 22.0515V22.037C13.096 21.6719 12.8764 21.4573 12.4436 21.3898L12.2498 21.3567C12.0364 21.3141 11.9298 21.2384 11.9298 21.1306C11.9298 20.9688 12.0462 20.8879 12.2773 20.8879H12.2818C12.4996 20.8879 12.704 20.9543 12.8809 21.0704L12.8747 21.0663L13.0418 20.6774C12.8103 20.5167 12.5438 20.4378 12.2747 20.4502H12.2773L12.2293 20.4492C12.0412 20.4489 11.8579 20.5182 11.7058 20.6473L11.7084 20.6452C11.6435 20.7042 11.5911 20.7797 11.555 20.866C11.519 20.9523 11.5003 21.047 11.5004 21.143V21.1648V21.1638C11.5004 21.5184 11.72 21.731 12.1529 21.7953L12.3333 21.8285C12.5547 21.8721 12.6667 21.9478 12.6667 22.0557C12.6667 22.2382 12.5244 22.3315 12.2356 22.3315H12.2276C12.0052 22.3321 11.7883 22.2516 11.6071 22.1013L11.6107 22.1044V22.1023ZM10.0267 20.4492H10.0044C9.88383 20.449 9.76447 20.4777 9.65376 20.5335C9.54305 20.5893 9.44337 20.6711 9.36089 20.7738C9.18975 21.0034 9.09557 21.2974 9.09573 21.6016C9.0959 21.9058 9.19039 22.1997 9.36178 22.429L9.36089 22.428C9.44354 22.5307 9.54338 22.6125 9.65423 22.6683C9.76509 22.7241 9.88459 22.7528 10.0053 22.7526H10.0284C10.143 22.7597 10.2564 22.734 10.3605 22.6778C10.4646 22.6216 10.5554 22.5365 10.6249 22.43L10.6258 22.428V22.7038H11.0284V20.5156H10.6258V20.7749C10.5552 20.6733 10.466 20.5915 10.3648 20.5353C10.2636 20.4792 10.153 20.4501 10.0409 20.4502L10.0267 20.4492ZM23.0827 20.5145V22.7028H23.4853V21.4718C23.4853 21.0963 23.6204 20.9055 23.888 20.9055H23.8969C23.9849 20.9055 24.0684 20.9294 24.1422 20.9719L24.1387 20.9698L24.2631 20.5156C24.1798 20.4721 24.0895 20.4498 23.9982 20.4502L23.9698 20.4513H23.9716H23.9564C23.8608 20.4512 23.7668 20.481 23.6843 20.5375C23.6018 20.594 23.5337 20.6753 23.4871 20.7728L23.4853 20.7759V20.5166L23.0827 20.5145ZM17.4027 20.5145V22.7028H17.8196V21.4718C17.8196 21.0963 17.9547 20.9055 18.2222 20.9055H18.2311C18.3191 20.9055 18.4027 20.9294 18.4764 20.9719L18.4729 20.9698L18.5982 20.5156C18.5112 20.4721 18.4174 20.4498 18.3227 20.4502H18.3058H18.2907C18.1951 20.4501 18.1012 20.4799 18.0189 20.5364C17.9365 20.593 17.8686 20.6742 17.8222 20.7717L17.8204 20.7749V20.5156L17.4027 20.5145ZM7.90222 20.9035C8.17867 20.9035 8.31911 21.0995 8.31911 21.4842V22.6997H8.736V21.3224L8.73689 21.2882C8.73703 21.0693 8.66438 20.8589 8.53422 20.7012C8.38748 20.5409 8.1939 20.4519 7.99289 20.4523H7.98489C7.85675 20.4427 7.72876 20.4734 7.61429 20.5413C7.49983 20.6092 7.4031 20.7117 7.33422 20.8381L7.33244 20.8412C7.26959 20.7145 7.17756 20.6109 7.06679 20.5422C6.95602 20.4735 6.83095 20.4423 6.70578 20.4523H6.70756H6.69956C6.59515 20.4524 6.49228 20.4817 6.39962 20.5378C6.30696 20.594 6.22722 20.6753 6.16711 20.7749L6.16533 20.7769V20.5177H5.75022V22.7059H6.16711V21.4884C6.16711 21.1015 6.32178 20.9076 6.62578 20.9076C6.90222 20.9076 7.04267 21.1036 7.04267 21.4884V22.7038H7.44533V21.4884C7.44533 21.1005 7.6 20.9076 7.90311 20.9076L7.90222 20.9035ZM20.3609 2.07417H20.3316C18.9415 2.07156 17.5832 2.55804 16.4338 3.47008L16.4578 3.45245C17.6183 4.55005 18.4718 6.02652 18.9093 7.69308L18.9236 7.75531C19.1333 8.52794 19.2533 9.41568 19.2533 10.3376C19.2533 11.2492 19.1351 12.1277 18.9164 12.9552L18.9307 12.893C18.5039 14.576 17.646 16.0663 16.472 17.1637L16.4578 17.1772C17.6103 18.0793 18.9677 18.5589 20.3556 18.5545C21.3511 18.5545 22.2978 18.3128 23.1556 17.8772L23.1102 17.898C24.7915 17.0763 26.1327 15.5234 26.8498 13.5682L26.8667 13.5153C27.2222 12.5715 27.4293 11.4712 27.4293 10.3148C27.4293 9.15848 27.2222 8.05814 26.8489 7.06254L26.8667 7.11439C26.1616 5.15105 24.8275 3.58636 23.1484 2.75346L23.1031 2.73375C22.2406 2.29721 21.31 2.0737 20.3698 2.07728H20.36L20.3609 2.07417ZM11.6391 2.07417H11.6293C10.6733 2.07282 9.72739 2.30307 8.85156 2.75034L8.896 2.7296C7.21064 3.54744 5.86585 5.10117 5.14844 7.05943L5.13156 7.11232C4.776 8.05606 4.56889 9.15641 4.56889 10.3128C4.56889 11.4691 4.776 12.5694 5.14933 13.565L5.13156 13.5132C5.83583 15.4748 7.16681 17.0396 8.84267 17.8762L8.888 17.8959C9.70044 18.3107 10.648 18.5524 11.6427 18.5524C13.0404 18.5552 14.4068 18.0689 15.5653 17.1565L15.5404 17.1751C14.3737 16.0826 13.5168 14.6046 13.0818 12.9345L13.0684 12.8733C12.8533 12.0466 12.7452 11.1871 12.7476 10.3231C12.7465 9.01057 12.9953 7.71412 13.4762 6.52751C13.957 5.34089 14.6579 4.29375 15.528 3.46178L15.5413 3.44934C14.398 2.54749 13.0486 2.06763 11.6684 2.07209H11.6364H11.6382L11.6391 2.07417ZM16 3.84032C14.8768 4.85311 14.0474 6.244 13.624 7.82479L13.6107 7.88183C13.3964 8.67317 13.2885 9.49844 13.2907 10.3283C13.2907 11.1932 13.4053 12.026 13.6178 12.809L13.6044 12.7509C14.019 14.3484 14.851 15.7548 15.984 16.7738L16 16.7873C17.1284 15.7808 17.9611 14.3903 18.3831 12.808L18.3964 12.752C18.6067 11.9676 18.7126 11.1502 18.7102 10.3283C18.7102 9.45405 18.5929 8.61298 18.3769 7.82272L18.3902 7.8808C17.9734 6.28509 17.1445 4.87839 16.0169 3.85276L16.0009 3.83928L16 3.84032ZM25.3742 22.2973H25.3591C25.285 22.2973 25.2118 22.2794 25.144 22.2446C25.0762 22.2097 25.0153 22.1588 24.9653 22.0951C24.8617 21.9584 24.8046 21.7821 24.8048 21.5997C24.8049 21.4172 24.8624 21.2411 24.9662 21.1046L24.9653 21.1057C25.0183 21.0412 25.082 20.99 25.1524 20.955C25.2228 20.9199 25.2986 20.9019 25.3751 20.9019C25.4517 20.9019 25.5274 20.9199 25.5978 20.955C25.6683 20.99 25.7319 21.0412 25.7849 21.1057C25.8882 21.2438 25.945 21.4209 25.9448 21.6042C25.9447 21.7875 25.8875 21.9645 25.784 22.1023L25.7849 22.1013C25.7339 22.1634 25.6726 22.2128 25.6048 22.2465C25.5369 22.2802 25.464 22.2975 25.3902 22.2973H25.3742ZM21.5831 22.2973H21.5636C21.4917 22.2973 21.4206 22.2801 21.3547 22.2467C21.2888 22.2134 21.2295 22.1646 21.1804 22.1034C21.0807 21.9615 21.0263 21.7836 21.0265 21.6002C21.0267 21.4167 21.0814 21.239 21.1813 21.0974L21.1804 21.0984C21.2293 21.0369 21.2886 20.9878 21.3545 20.9542C21.4205 20.9207 21.4916 20.9034 21.5636 20.9035H21.584H21.5991C21.7547 20.9035 21.8951 20.9812 21.992 21.1057C22.0916 21.2312 22.152 21.3992 22.152 21.5838V21.6045V21.6035L22.1529 21.6315C22.1532 21.8067 22.0985 21.9761 21.9991 22.1075L22 22.1065C21.9497 22.167 21.8895 22.2151 21.8229 22.2479C21.7563 22.2807 21.6847 22.2975 21.6124 22.2973L21.5822 22.2963H21.584L21.5831 22.2973ZM10.0827 22.2973L10.0569 22.2983C9.98389 22.2985 9.91163 22.2814 9.84453 22.2478C9.77743 22.2143 9.7169 22.1651 9.66667 22.1034C9.56697 21.9615 9.51256 21.7836 9.51272 21.6002C9.51289 21.4167 9.56761 21.239 9.66756 21.0974L9.66667 21.0984C9.72036 21.0328 9.78556 20.9815 9.85782 20.948C9.93009 20.9146 10.0077 20.8997 10.0853 20.9045H10.1049C10.1773 20.9044 10.2489 20.9224 10.3148 20.9573C10.3807 20.9921 10.4395 21.0431 10.4871 21.1067L10.488 21.1078C10.5868 21.2483 10.6406 21.4245 10.6405 21.6063C10.6403 21.788 10.5861 21.9641 10.4871 22.1044L10.488 22.1034C10.4388 22.165 10.3792 22.2142 10.313 22.2477C10.2468 22.2813 10.1753 22.2985 10.1031 22.2983H10.0836H10.0844L10.0827 22.2973ZM16.5689 21.4054H15.5973C15.6097 21.2652 15.6662 21.1352 15.7558 21.0407C15.8454 20.9462 15.9619 20.8937 16.0828 20.8935C16.2036 20.8932 16.3202 20.9452 16.4102 21.0393C16.5001 21.1335 16.557 21.2631 16.5698 21.4033L16.5689 21.4054Z" fill="#032940"/>
</svg>
