<svg width="32" height="25" viewBox="0 0 32 25" fill="none" xmlns="http://www.w3.org/2000/svg">
<path d="M10.3507 12.567C10.3507 13.245 9.81169 13.761 9.12872 13.761C8.61773 13.761 8.23974 13.472 8.23974 12.928C8.23974 12.25 8.76773 11.706 9.44571 11.706C9.96269 11.706 10.3507 12.023 10.3507 12.567ZM4.47286 9.873H4.21187C4.12887 9.873 4.04487 9.929 4.03387 10.023L3.79488 11.507L4.25087 11.49C4.86185 11.49 5.33383 11.407 5.44483 10.701C5.57283 9.956 5.10084 9.873 4.47286 9.873ZM20.2504 9.873H20.0004C19.9004 9.873 19.8334 9.929 19.8224 10.023L19.5894 11.507L20.0334 11.49C20.7554 11.49 21.2553 11.323 21.2553 10.49C21.2493 9.901 20.7234 9.873 20.2504 9.873ZM32 2.667V22.223C31.9997 22.9303 31.7187 23.6085 31.2186 24.1086C30.7185 24.6087 30.0403 24.8897 29.3331 24.89H2.66692C1.95969 24.8897 1.2815 24.6087 0.781414 24.1086C0.281328 23.6085 0.000265029 22.9303 0 22.223V2.667C0.000265029 1.95975 0.281328 1.28154 0.781414 0.781439C1.2815 0.281337 1.95969 0.000265037 2.66692 0H29.3331C30.0403 0.000265037 30.7185 0.281337 31.2186 0.781439C31.7187 1.28154 31.9997 1.95975 32 2.667ZM7.12878 10.189C7.12878 9.022 6.22881 8.633 5.20084 8.633H2.97891C2.90713 8.63355 2.83805 8.66043 2.78478 8.70854C2.73151 8.75665 2.69775 8.82265 2.68992 8.894L1.77894 14.566C1.76195 14.677 1.84594 14.788 1.95694 14.788H3.01291C3.1629 14.788 3.3019 14.627 3.3189 14.471L3.56889 12.993C3.62489 12.593 4.30187 12.732 4.56886 12.732C6.15781 12.732 7.12978 11.788 7.12978 10.188L7.12878 10.189ZM11.8066 10.678H10.7507C10.5397 10.678 10.5287 10.984 10.5177 11.134C10.1957 10.662 9.7287 10.578 9.20071 10.578C7.83976 10.578 6.80079 11.772 6.80079 13.089C6.80079 14.172 7.47877 14.878 8.56173 14.878C9.06172 14.878 9.6837 14.606 10.0337 14.217C10.0014 14.3294 9.98257 14.4452 9.97769 14.562C9.97769 14.69 10.0337 14.784 10.1557 14.784H11.1117C11.2616 14.784 11.3896 14.623 11.4176 14.467L11.9846 10.895C12.0016 10.789 11.9176 10.678 11.8066 10.678ZM14.0566 16.117L17.5954 10.972C17.6234 10.944 17.6234 10.916 17.6234 10.878C17.6234 10.784 17.5405 10.684 17.4455 10.684H16.3785C16.3288 10.686 16.2803 10.6996 16.2369 10.7237C16.1935 10.7478 16.1564 10.7819 16.1285 10.823L14.6565 12.99L14.0456 10.907C14.0226 10.8436 13.9812 10.7886 13.9266 10.7491C13.8721 10.7095 13.8069 10.6872 13.7396 10.685H12.7006C12.6056 10.685 12.5226 10.785 12.5226 10.879C12.5226 10.946 13.6056 14.035 13.7006 14.329C13.5506 14.54 12.5616 15.918 12.5616 16.085C12.5616 16.185 12.6446 16.263 12.7396 16.263H13.8066C13.8565 16.2597 13.905 16.245 13.9483 16.2201C13.9916 16.1951 14.0287 16.1605 14.0566 16.119V16.117ZM22.9063 10.189C22.9063 9.022 22.0063 8.633 20.9783 8.633H18.7724C18.6985 8.63241 18.6269 8.65847 18.5707 8.70641C18.5145 8.75436 18.4775 8.82096 18.4664 8.894L17.5665 14.561C17.5555 14.672 17.6384 14.783 17.7444 14.783H18.8834C18.9944 14.783 19.0774 14.7 19.1054 14.605L19.3554 12.994C19.4114 12.594 20.0894 12.733 20.3554 12.733C21.9333 12.733 22.9063 11.789 22.9063 10.189ZM27.5831 10.678H26.5272C26.3162 10.678 26.3052 10.984 26.2882 11.134C25.9822 10.662 25.5102 10.578 24.9712 10.578C23.6103 10.578 22.5713 11.772 22.5713 13.089C22.5713 14.172 23.2493 14.878 24.3322 14.878C24.8492 14.878 25.4712 14.606 25.8042 14.217C25.7872 14.3 25.7482 14.478 25.7482 14.562C25.7482 14.69 25.8042 14.784 25.9262 14.784H26.8872C27.0372 14.784 27.1652 14.623 27.1932 14.467L27.7601 10.895C27.7771 10.789 27.6941 10.678 27.5831 10.678ZM30.2221 8.828C30.2221 8.717 30.1391 8.634 30.0441 8.634H29.0161C28.9331 8.634 28.8491 8.701 28.8381 8.784L27.9381 14.562L27.9221 14.59C27.9221 14.69 28.0051 14.784 28.1161 14.784H29.0331C29.1721 14.784 29.3111 14.623 29.3221 14.467L30.2221 8.845V8.828ZM25.2222 11.706C24.5442 11.706 24.0163 12.245 24.0163 12.928C24.0163 13.467 24.4052 13.761 24.9162 13.761C25.5832 13.761 26.1222 13.25 26.1222 12.567C26.1282 12.023 25.7392 11.706 25.2222 11.706Z" fill="#032940"/>
</svg>
