<svg width="32" height="25" viewBox="0 0 32 25" fill="none" xmlns="http://www.w3.org/2000/svg">
<path d="M3.42857 0C1.54857 0 0 1.6863 0 3.7335V21.1565C0 23.2037 1.54857 24.89 3.42857 24.89H28.5714C30.4514 24.89 32 23.2037 32 21.1565V3.7335C32 1.6863 30.4514 0 28.5714 0H3.42857ZM3.42857 2.489H28.5714C29.2183 2.489 29.7143 3.02911 29.7143 3.7335V21.1565C29.7143 21.8609 29.2183 22.401 28.5714 22.401H3.42857C2.78171 22.401 2.28571 21.8609 2.28571 21.1565V3.7335C2.28571 3.02911 2.78171 2.489 3.42857 2.489ZM16.5714 6.76759C16.4445 6.76609 16.3185 6.7922 16.2009 6.84438C16.0834 6.89655 15.9765 6.97375 15.8867 7.07146C15.7969 7.16916 15.7259 7.2854 15.6778 7.41337C15.6298 7.54133 15.6056 7.67846 15.6069 7.8167C15.6069 8.40037 16.0309 8.86706 16.5714 8.86706C16.6983 8.86772 16.824 8.841 16.9413 8.78845C17.0586 8.7359 17.1651 8.65856 17.2548 8.56089C17.3445 8.46322 17.4156 8.34717 17.4638 8.21944C17.5121 8.0917 17.5366 7.95482 17.536 7.8167C17.5369 7.67849 17.5126 7.54146 17.4644 7.41358C17.4163 7.28569 17.3453 7.16951 17.2555 7.07177C17.1658 6.97404 17.0591 6.89671 16.9416 6.84428C16.8242 6.79184 16.6984 6.7666 16.5714 6.76759ZM10.3566 7.70097L8.78629 7.97227L8.57143 9.48931L8 9.60629L7.78514 11.0064H8.57143V13.9235C8.57143 14.6814 8.74514 15.1966 9.10743 15.5164C9.41029 15.7852 9.848 15.906 10.464 15.906C10.9371 15.906 11.2274 15.8089 11.4286 15.7504V14.1948C11.3166 14.2296 11.0629 14.2732 10.8926 14.2732C10.5314 14.2732 10.3566 14.074 10.3566 13.6111V11.0064H11.3211L11.536 9.48931H10.3577L10.3566 7.70097ZM5.608 9.37108C4.98286 9.37108 4.44229 9.54531 4.07314 9.87635C3.68457 10.2223 3.50171 10.7475 3.50171 11.3548C3.50171 12.4537 4.104 12.9055 5.10857 13.3C5.75543 13.5476 5.96571 13.7231 5.96571 13.9994C5.96571 14.2669 5.77371 14.4275 5.39429 14.4275C4.92571 14.4275 4.14857 14.1699 3.64343 13.8438L3.42857 15.3621C3.86171 15.6297 4.66971 15.906 5.50057 15.906C6.16114 15.906 6.70057 15.7653 7.072 15.4393C7.48686 15.0846 7.71429 14.5258 7.71429 13.8451C7.71429 12.7225 7.08914 12.2558 6.07086 11.8613C5.53143 11.6423 5.21371 11.5066 5.21371 11.2391C5.21371 11.0113 5.37486 10.8508 5.67886 10.8508C6.23657 10.8508 6.82171 11.1084 7.21371 11.3175L7.42857 9.80044C6.85808 9.51214 6.23576 9.3659 5.60686 9.37233L5.608 9.37108ZM21.3943 9.37108C20.8583 9.37108 20.3669 9.63865 19.9291 10.1489L19.8583 9.48807H18.2149V18.1224L20.072 17.7715V15.789C20.3543 15.886 20.6354 15.9047 20.8949 15.9047C21.3543 15.9047 22.0194 15.779 22.5371 15.1667C23.032 14.5781 23.2869 13.6883 23.2869 12.4823C23.2869 11.4183 23.1211 10.587 22.7509 10.0717C22.4251 9.61003 21.9737 9.37108 21.3943 9.37108ZM26.2149 9.37108C24.6491 9.37108 23.68 10.6542 23.68 12.6765C23.68 13.809 23.9166 14.6652 24.4297 15.2053C24.8891 15.6907 25.5771 15.9047 26.4297 15.9047C27.216 15.9047 27.9337 15.7305 28.3943 15.3994L28.1794 13.9994C27.6972 14.2841 27.1566 14.4314 26.608 14.4275C26.2514 14.4275 26.0011 14.3254 25.8229 14.1549C25.6309 13.9745 25.5371 13.7131 25.5006 13.2987H28.5371C28.5463 13.2017 28.5726 12.7449 28.5726 12.5993C28.5726 11.5975 28.3577 10.7861 27.9657 10.2273C27.5634 9.66354 26.9783 9.37108 26.2149 9.37108ZM14.8571 9.41091C14.6122 9.40348 14.3718 9.48298 14.172 9.63744C13.9722 9.79189 13.824 10.0129 13.7497 10.2671L13.6423 9.48931H12.0354V15.7902H13.8926V11.7058C14.1211 11.3996 14.4469 11.2777 14.8926 11.2777C14.9909 11.2777 15.0891 11.2926 15.2137 11.3175V9.45073C15.0968 9.42206 14.977 9.40786 14.8571 9.41091ZM15.6434 9.48931V15.7902H17.4994V9.48931H15.6434ZM26.1783 10.7338C26.5943 10.7338 26.8263 11.1669 26.8571 12.0567H25.4994C25.5531 11.1569 25.7543 10.7338 26.1783 10.7338ZM20.7497 10.928C21.2183 10.928 21.464 11.4482 21.464 12.5222C21.464 13.1357 21.384 13.636 21.2149 13.962C21.0663 14.2682 20.8389 14.4287 20.5714 14.4287C20.3984 14.4339 20.2267 14.3938 20.0709 14.3117V11.3175C20.384 10.9628 20.6469 10.928 20.7497 10.928Z" fill="#032940"/>
</svg>
