<svg width="32" height="25" viewBox="0 0 32 25" fill="none" xmlns="http://www.w3.org/2000/svg">
<g clip-path="url(#clip0_538_77)">
<path d="M27.4306 13.9682H25.5139C25.6435 13.5685 25.9491 12.6016 26.4306 11.0676L26.4722 10.9218C26.5093 10.8138 26.5556 10.6733 26.6111 10.5005C26.6667 10.3276 26.7083 10.1872 26.7361 10.0792L26.9028 10.9704L27.4306 13.9682ZM7.375 12.9149L6.56944 8.13462C6.46759 7.55126 6.12037 7.25958 5.52778 7.25958H1.80556L1.77778 7.47024C4.65741 8.32367 6.52315 10.1386 7.375 12.9149ZM9.86111 7.25958L7.61111 14.3571L7.375 12.9149C7.13426 12.1587 6.74074 11.4592 6.19444 10.8165C5.64815 10.1737 5.04167 9.69565 4.375 9.38236L6.25 17.6466H8.68056L12.3056 7.25958H9.86111ZM11.7917 17.6628H14.0972L15.5417 7.25958H13.2361L11.7917 17.6628ZM22.4583 7.51885C21.8194 7.22717 21.1296 7.08133 20.3889 7.08133C19.25 7.08133 18.3194 7.40002 17.5972 8.0374C16.875 8.67477 16.5093 9.5012 16.5 10.5167C16.4907 11.6186 17.162 12.5584 18.5139 13.3362C18.9583 13.5847 19.2685 13.8062 19.4444 14.0006C19.6204 14.1951 19.7083 14.4057 19.7083 14.6326C19.7083 14.9567 19.5694 15.2052 19.2917 15.378C19.0139 15.5508 18.6944 15.6373 18.3333 15.6373C17.537 15.6373 16.8148 15.459 16.1667 15.1025L15.8611 14.9243L15.5417 17.2577C16.2269 17.625 17.0833 17.8087 18.1111 17.8087C19.3148 17.8195 20.2801 17.5008 21.0069 16.8526C21.7338 16.2044 22.1065 15.3402 22.125 14.2599C22.125 13.1148 21.4769 12.1749 20.1806 11.4403C19.7269 11.1703 19.3981 10.9434 19.1944 10.7597C18.9907 10.5761 18.8889 10.3708 18.8889 10.144C18.8889 9.90631 19.0023 9.69835 19.2292 9.5201C19.456 9.34185 19.7824 9.25273 20.2083 9.25273C20.8565 9.24192 21.4306 9.37156 21.9306 9.64163L22.1389 9.77127L22.4583 7.51885ZM28.3611 7.25958H26.5833C25.9815 7.25958 25.5787 7.55126 25.375 8.13462L21.9583 17.6628H24.375L24.8611 16.1072H27.8056C27.8519 16.3449 27.9444 16.8634 28.0833 17.6628H30.2222L28.3611 7.25958ZM32 2.07417V22.8158C32 23.3776 31.8241 23.8637 31.4722 24.2742C31.1204 24.6847 30.7037 24.89 30.2222 24.89H1.77778C1.2963 24.89 0.87963 24.6847 0.527778 24.2742C0.175926 23.8637 0 23.3776 0 22.8158V2.07417C0 1.51241 0.175926 1.02628 0.527778 0.615768C0.87963 0.205256 1.2963 0 1.77778 0H30.2222C30.7037 0 31.1204 0.205256 31.4722 0.615768C31.8241 1.02628 32 1.51241 32 2.07417Z" fill="#032940"/>
</g>
<defs>
<clipPath id="clip0_538_77">
<rect width="32" height="24.89" fill="white"/>
</clipPath>
</defs>
</svg>
