<svg width="24" height="24" viewBox="0 0 24 24" fill="none" xmlns="http://www.w3.org/2000/svg">
<path fill-rule="evenodd" clip-rule="evenodd" d="M2.25 6C2.25 5.80109 2.32902 5.61032 2.46967 5.46967C2.61032 5.32902 2.80109 5.25 3 5.25H20C20.1989 5.25 20.3897 5.32902 20.5303 5.46967C20.671 5.61032 20.75 5.80109 20.75 6C20.75 6.19891 20.671 6.38968 20.5303 6.53033C20.3897 6.67098 20.1989 6.75 20 6.75H3C2.80109 6.75 2.61032 6.67098 2.46967 6.53033C2.32902 6.38968 2.25 6.19891 2.25 6ZM20.772 8.428C22.007 8.89 22.75 10.145 22.75 11.715C22.75 12.875 22.051 13.957 21.317 14.796C20.559 15.661 19.638 16.409 18.955 16.912L18.875 16.972C18.503 17.248 18.082 17.56 17.5 17.56C16.918 17.56 16.497 17.248 16.125 16.972L16.045 16.912C15.362 16.409 14.441 15.662 13.683 14.796C12.949 13.957 12.25 12.876 12.25 11.715C12.25 10.145 12.993 8.89 14.228 8.428C15.271 8.038 16.458 8.292 17.5 9.102C18.543 8.292 19.73 8.039 20.772 8.428ZM20.247 9.833C19.73 9.64 18.905 9.743 18.036 10.631C17.9662 10.7024 17.8828 10.7591 17.7907 10.7978C17.6987 10.8365 17.5998 10.8564 17.5 10.8564C17.4002 10.8564 17.3013 10.8365 17.2093 10.7978C17.1172 10.7591 17.0338 10.7024 16.964 10.631C16.095 9.743 15.271 9.641 14.754 9.833C14.244 10.023 13.75 10.607 13.75 11.715C13.75 12.306 14.133 13.033 14.812 13.808C15.468 14.557 16.292 15.23 16.935 15.704C17.178 15.884 17.301 15.972 17.399 16.025C17.465 16.061 17.483 16.061 17.498 16.06H17.502C17.517 16.06 17.536 16.06 17.601 16.025C17.699 15.972 17.822 15.884 18.065 15.705C18.709 15.23 19.532 14.557 20.188 13.808C20.868 13.033 21.25 12.306 21.25 11.715C21.25 10.607 20.756 10.024 20.247 9.833ZM2.25 11C2.25 10.8011 2.32902 10.6103 2.46967 10.4697C2.61032 10.329 2.80109 10.25 3 10.25H9C9.19891 10.25 9.38968 10.329 9.53033 10.4697C9.67098 10.6103 9.75 10.8011 9.75 11C9.75 11.1989 9.67098 11.3897 9.53033 11.5303C9.38968 11.671 9.19891 11.75 9 11.75H3C2.80109 11.75 2.61032 11.671 2.46967 11.5303C2.32902 11.3897 2.25 11.1989 2.25 11ZM2.25 16C2.25 15.8011 2.32902 15.6103 2.46967 15.4697C2.61032 15.329 2.80109 15.25 3 15.25H10C10.1989 15.25 10.3897 15.329 10.5303 15.4697C10.671 15.6103 10.75 15.8011 10.75 16C10.75 16.1989 10.671 16.3897 10.5303 16.5303C10.3897 16.671 10.1989 16.75 10 16.75H3C2.80109 16.75 2.61032 16.671 2.46967 16.5303C2.32902 16.3897 2.25 16.1989 2.25 16Z" fill="#F2F2F2"/>
</svg>
